<?xml version="1.0" encoding="utf-8"?>
<!-- Generator: Adobe Illustrator 16.0.0, SVG Export Plug-In . SVG Version: 6.00 Build 0)  -->
<!DOCTYPE svg PUBLIC "-//W3C//DTD SVG 1.1//EN" "http://www.w3.org/Graphics/SVG/1.1/DTD/svg11.dtd">
<svg version="1.1" id="Layer_1" xmlns="http://www.w3.org/2000/svg" xmlns:xlink="http://www.w3.org/1999/xlink" x="0px" y="0px"
	 width="211px" height="56px" viewBox="0 0 211 56" enable-background="new 0 0 211 56" xml:space="preserve">
<g>
	<path fill="#CFCECE" d="M55.282,41.21c-0.292,0-0.538-0.102-0.741-0.304c-0.205-0.205-0.306-0.45-0.306-0.744V2.131
		c0-0.698,0.349-1.046,1.046-1.046c0.698,0,1.047,0.348,1.047,1.046v38.031c0,0.294-0.102,0.539-0.305,0.744
		C55.819,41.108,55.573,41.21,55.282,41.21z"/>
	<path fill="#CFCECE" d="M181.314,20.755c1.279,0.553,2.4,1.309,3.359,2.268c0.959,0.96,1.715,2.094,2.27,3.403
		c0.549,1.308,0.826,2.689,0.826,4.142c0,0.99-0.145,1.935-0.436,2.835c-0.291,0.904-0.67,1.79-1.133,2.662h0.086
		c-0.291,0.465-0.67,0.946-1.133,1.439c-0.467,0.494-0.932,0.945-1.396,1.352c-0.115,0.059-0.262,0.146-0.436,0.262l-0.785,0.523
		c-0.117,0.059-0.219,0.117-0.307,0.174c-0.086,0.059-0.189,0.117-0.305,0.176c-1.629,0.754-3.602,1.134-5.113,1.134h-9.154
		c-2.559,0-5.258-0.785-7.293-2.355h0.086c-0.812-0.815-1.555-1.746-2.225-2.792c-0.668-1.047-1.119-2.15-1.35-3.314
		c-0.059-0.523,0.143-0.901,0.609-1.136c0.293,0,0.566,0.06,0.83,0.177c0.26,0.117,0.449,0.261,0.566,0.436v-0.086
		c0.406,2.034,1.395,3.706,2.963,5.015c1.572,1.309,3.775,1.962,5.812,1.962h9.154c0.873,0,2.148-0.188,3.02-0.567
		c0.873-0.376,1.672-0.885,2.398-1.526c0.727-0.639,1.365-1.382,1.92-2.225c0.553-0.842,0.943-1.699,1.178-2.572
		c0.057-0.175,0.115-0.436,0.174-0.785c0.059-0.349,0.088-0.61,0.088-0.786c0-1.162-0.219-2.252-0.654-3.271
		c-0.436-1.016-1.047-1.919-1.832-2.703c-0.785-0.785-1.688-1.409-2.705-1.876c-1.018-0.465-2.48-0.698-3.586-0.698h-9.154
		c-1.512,0-3.311-0.275-4.59-0.829c-1.277-0.552-2.385-1.293-3.314-2.224c-0.932-0.93-1.672-2.035-2.223-3.315
		c-0.555-1.278-0.83-2.673-0.83-4.187c0-1.453,0.275-2.805,0.83-4.056c0.551-1.251,1.291-2.341,2.223-3.271
		c0.93-0.93,2.037-1.672,3.314-2.225c1.279-0.553,3.078-0.828,4.59-0.828h9.154c2.5,0,5.143,0.756,7.119,2.268
		c0.756,0.815,1.498,1.788,2.225,2.922c0.727,1.135,1.178,2.195,1.352,3.184c0.117,0.524-0.059,0.902-0.523,1.135
		c-0.291,0-0.596-0.072-0.914-0.218c-0.32-0.145-0.568-0.306-0.742-0.48c-0.293-0.813-0.699-1.627-1.221-2.442
		c-0.523-0.813-1.164-1.54-1.92-2.181c-0.756-0.64-1.557-1.147-2.398-1.526s-2.104-0.567-2.977-0.567h-9.154
		c-1.221,0-2.744,0.219-3.76,0.654c-1.02,0.436-1.904,1.033-2.662,1.788c-0.756,0.757-1.35,1.644-1.787,2.66
		c-0.438,1.019-0.652,2.08-0.652,3.185c0,2.442,0.797,4.463,2.398,6.062c1.596,1.601,4.021,2.398,6.463,2.398h9.154
		C178.266,19.926,180.035,20.203,181.314,20.755z"/>
	<path fill="#CFCECE" d="M42.556,5.707c-0.03-0.29-0.162-0.522-0.393-0.697c-1.454-1.222-3.084-2.151-4.885-2.792
		c-1.804-0.638-3.635-0.96-5.496-0.96c-3.024,0-5.771,0.742-8.243,2.226c-0.455,0.272-0.884,0.566-1.302,0.872
		c-0.076,0.054-0.152,0.109-0.227,0.165c-0.151,0.114-0.3,0.23-0.446,0.35c-0.086,0.07-0.171,0.143-0.257,0.214
		c-0.468,0.396-0.912,0.817-1.328,1.26c-0.108,0.115-0.215,0.23-0.32,0.347c-0.075,0.085-0.151,0.172-0.225,0.259
		c-1.071,1.252-1.944,2.649-2.613,4.193c-0.735,1.701-1.15,3.521-1.244,5.466l-0.021,0.069v0.789v7.519v14.775v0.158
		c0,0.291,0.102,0.537,0.305,0.74c0.204,0.204,0.451,0.307,0.742,0.307s0.538-0.103,0.741-0.307
		c0.095-0.094,0.165-0.197,0.216-0.311c0.117-0.171,0.177-0.367,0.177-0.588V24.985v-7.502c0-1.919,0.362-3.735,1.09-5.452
		c0.726-1.714,1.729-3.213,3.009-4.492c1.279-1.278,2.776-2.281,4.493-3.009c1.714-0.727,3.532-1.091,5.452-1.091
		c3.372,0,6.368,1.077,8.985,3.228C41,6.842,41.26,6.929,41.553,6.929c0.291,0,0.552-0.145,0.786-0.436
		C42.512,6.261,42.584,5.999,42.556,5.707z"/>
	<path fill="#CFCECE" d="M99.811,11.187c-0.843-1.947-2.006-3.664-3.489-5.147c-1.483-1.482-3.213-2.645-5.19-3.488
		c-1.91-0.813-3.956-1.231-6.138-1.26l-0.009-0.005c-0.037,0-0.073,0.002-0.111,0.002c-0.037,0-0.073-0.002-0.11-0.002l-0.009,0.005
		c-2.181,0.028-4.227,0.446-6.137,1.26c-1.977,0.844-3.708,2.006-5.19,3.488c-1.482,1.483-2.646,3.2-3.489,5.147
		c-0.843,1.949-1.266,4.057-1.266,6.324v22.451c0,0.292,0.102,0.537,0.306,0.74c0.204,0.206,0.45,0.307,0.741,0.307
		c0.292,0,0.539-0.101,0.742-0.307c0.204-0.203,0.306-0.448,0.306-0.74V17.511c0-1.977,0.378-3.809,1.134-5.496
		c0.756-1.686,1.774-3.169,3.053-4.448c1.279-1.278,2.778-2.282,4.493-3.01c1.684-0.712,3.494-1.074,5.428-1.088
		c1.935,0.014,3.745,0.376,5.428,1.088c1.715,0.728,3.214,1.731,4.493,3.01c1.279,1.279,2.297,2.763,3.053,4.448
		c0.755,1.688,1.134,3.52,1.134,5.496v22.451c0,0.292,0.101,0.537,0.306,0.74c0.204,0.206,0.45,0.307,0.742,0.307
		c0.291,0,0.537-0.101,0.741-0.307c0.204-0.203,0.306-0.448,0.306-0.74V17.511C101.077,15.243,100.654,13.136,99.811,11.187z"/>
	<path fill="#CFCECE" d="M144.518,31.108c-0.844,1.946-2.006,3.663-3.49,5.146c-1.482,1.482-3.213,2.646-5.189,3.489
		c-1.91,0.813-3.957,1.23-6.137,1.259l-0.012,0.006c-0.035,0-0.072-0.002-0.109-0.003c-0.037,0.001-0.072,0.003-0.111,0.003
		l-0.008-0.006c-2.18-0.028-4.227-0.445-6.139-1.259c-1.977-0.844-3.705-2.007-5.189-3.489c-1.482-1.483-2.645-3.2-3.49-5.146
		c-0.842-1.949-1.264-4.057-1.264-6.324V2.332c0-0.292,0.102-0.538,0.305-0.741c0.205-0.205,0.451-0.305,0.742-0.305
		s0.539,0.1,0.742,0.305c0.205,0.203,0.305,0.449,0.305,0.741v22.452c0,1.976,0.379,3.808,1.133,5.495
		c0.758,1.685,1.775,3.169,3.053,4.447c1.281,1.279,2.779,2.284,4.492,3.011c1.686,0.712,3.496,1.074,5.43,1.088
		c1.934-0.014,3.744-0.376,5.43-1.088c1.715-0.727,3.211-1.731,4.492-3.011c1.279-1.278,2.295-2.763,3.053-4.447
		c0.754-1.688,1.135-3.52,1.135-5.495V2.332c0-0.292,0.1-0.538,0.305-0.741c0.203-0.205,0.449-0.305,0.74-0.305
		c0.293,0,0.537,0.1,0.742,0.305c0.203,0.203,0.305,0.449,0.305,0.741v22.452C145.781,27.052,145.359,29.159,144.518,31.108z"/>
	<path fill="#CFCECE" d="M115.787,49.075c-0.266,0-0.713-0.052-0.713,0.357c0,0.21,0.158,0.29,0.342,0.368l3.166,1.438
		c0.814,0.369,1.236,0.882,1.236,1.792c0,1.277-0.871,1.885-2.082,1.885h-1.949c-0.66,0-1.109-0.025-1.584-0.396
		c-0.236-0.185-0.58-0.42-0.58-0.739c0-0.355,0.305-0.632,0.66-0.632c0.197,0,0.344,0.065,0.488,0.224
		c0.223,0.252,0.619,0.277,1.016,0.277h1.713c0.447,0,1.055,0.039,1.055-0.699c0-0.303-0.369-0.5-0.66-0.633l-2.979-1.356
		c-0.699-0.317-1.107-0.725-1.107-1.543c0-1.001,0.791-1.607,1.74-1.607h2.16c0.699,0,0.99,0.039,1.465,0.435
		c0.236,0.198,0.5,0.355,0.5,0.712c0,0.355-0.305,0.633-0.645,0.633c-0.238,0-0.385-0.092-0.541-0.266
		c-0.213-0.222-0.438-0.249-0.779-0.249H115.787z"/>
	<path fill="#CFCECE" d="M123.91,50.168c0-0.844,0.172-1.132,0.805-1.646c0.619-0.515,0.908-0.712,1.789-0.712h1.004
		c0.885,0,1.172,0.197,1.793,0.712c0.631,0.514,0.803,0.802,0.803,1.646v2.389c0,0.828-0.211,1.145-0.869,1.698
		c-0.66,0.555-0.922,0.66-1.727,0.66h-1.004c-0.803,0-1.064-0.105-1.725-0.66c-0.658-0.554-0.869-0.87-0.869-1.698V50.168z
		 M125.174,52.557c0,0.263,0.092,0.434,0.463,0.75c0.277,0.236,0.473,0.343,0.867,0.343h1.004c0.395,0,0.594-0.106,0.869-0.343
		c0.369-0.316,0.461-0.487,0.461-0.75v-2.389c0-0.262-0.092-0.434-0.461-0.75c-0.275-0.235-0.475-0.343-0.869-0.343h-1.004
		c-0.395,0-0.59,0.107-0.867,0.343c-0.371,0.316-0.463,0.488-0.463,0.75V52.557z"/>
	<path fill="#CFCECE" d="M136.359,53.649h0.951c0.42,0,0.867,0.092,0.867,0.632c0,0.555-0.5,0.634-0.867,0.634h-3.217
		c-0.369,0-0.871-0.079-0.871-0.634c0-0.54,0.449-0.632,0.871-0.632h1v-7.184h-1c-0.369,0-0.871-0.08-0.871-0.632
		c0-0.541,0.449-0.633,0.871-0.633h1.33c0.727,0,0.936,0.131,0.936,0.883V53.649z"/>
	<path fill="#CFCECE" d="M148.289,53.979c0,0.29,0.053,0.937-0.621,0.937c-0.541,0-0.633-0.449-0.633-0.884V53.82l-1.027,0.673
		c-0.41,0.263-0.75,0.422-1.094,0.422h-0.936c-0.355,0-0.752-0.105-1.174-0.462c-0.566-0.486-0.553-1.028-0.58-1.713l-0.131-3.98
		c-0.016-0.462,0.051-0.949,0.631-0.949c0.541,0,0.607,0.461,0.621,0.87l0.131,3.888c0.014,0.29,0.027,0.634,0.133,0.816
		c0.104,0.186,0.436,0.265,0.738,0.265h0.422c0.145,0,0.275-0.04,0.395-0.118l1.859-1.174v-3.677c0-0.436,0.092-0.87,0.633-0.87
		s0.633,0.435,0.633,0.87V53.979z"/>
	<path fill="#CFCECE" d="M154.525,52.527c0,0.714-0.027,1.122,0.842,1.122h0.646c0.514,0,0.752-0.04,0.883-0.554
		c0.08-0.304,0.316-0.515,0.635-0.515c0.354,0,0.645,0.277,0.645,0.633c0,0.356-0.225,0.804-0.436,1.055
		c-0.461,0.554-1.068,0.646-1.74,0.646h-0.645c-0.633,0-1.188-0.145-1.635-0.634c-0.488-0.54-0.461-1.079-0.461-1.766v-3.44h-0.41
		c-0.367,0-0.869-0.078-0.869-0.632c0-0.541,0.449-0.633,0.869-0.633h0.41V46.52c0-0.436,0.092-0.871,0.633-0.871
		c0.539,0,0.633,0.436,0.633,0.871v1.291h2.121c0.422,0,0.871,0.092,0.871,0.633c0,0.554-0.502,0.632-0.871,0.632h-2.121V52.527z"/>
	<path fill="#CFCECE" d="M164.83,53.649h0.949c0.42,0,0.869,0.092,0.869,0.632c0,0.555-0.5,0.634-0.869,0.634h-3.217
		c-0.369,0-0.871-0.079-0.871-0.634c0-0.54,0.449-0.632,0.871-0.632h1.002v-4.574h-1.002c-0.369,0-0.871-0.078-0.871-0.632
		c0-0.541,0.449-0.633,0.871-0.633h1.33c0.727,0,0.938,0.131,0.938,0.883V53.649z M162.918,45.255c0-0.449,0.248-0.594,0.594-0.594
		h0.725c0.344,0,0.594,0.145,0.594,0.594v0.605c0,0.446-0.25,0.591-0.594,0.591h-0.725c-0.346,0-0.594-0.145-0.594-0.591V45.255z"/>
	<path fill="#CFCECE" d="M169.768,50.168c0-0.844,0.17-1.132,0.803-1.646c0.621-0.515,0.91-0.712,1.793-0.712h1.002
		c0.885,0,1.174,0.197,1.793,0.712c0.633,0.514,0.803,0.802,0.803,1.646v2.389c0,0.828-0.211,1.145-0.869,1.698
		c-0.66,0.555-0.922,0.66-1.727,0.66h-1.002c-0.805,0-1.066-0.105-1.727-0.66c-0.658-0.554-0.869-0.87-0.869-1.698V50.168z
		 M171.033,52.557c0,0.263,0.092,0.434,0.459,0.75c0.279,0.236,0.475,0.343,0.871,0.343h1.002c0.396,0,0.592-0.106,0.869-0.343
		c0.371-0.316,0.463-0.487,0.463-0.75v-2.389c0-0.262-0.092-0.434-0.463-0.75c-0.277-0.235-0.473-0.343-0.869-0.343h-1.002
		c-0.396,0-0.592,0.107-0.871,0.343c-0.367,0.316-0.459,0.488-0.459,0.75V52.557z"/>
	<path fill="#CFCECE" d="M180.914,50.368v3.677c0,0.435-0.09,0.87-0.633,0.87c-0.539,0-0.631-0.436-0.631-0.87v-5.3
		c0-0.461,0.053-0.935,0.631-0.935c0.566,0,0.633,0.474,0.633,0.922v0.146v0.024l1.029-0.671c0.328-0.211,0.686-0.422,1.094-0.422
		h0.936c0.488,0,0.791,0.131,1.174,0.461c0.564,0.488,0.541,1.028,0.564,1.713l0.133,3.982c0.014,0.447-0.051,0.948-0.617,0.948
		c-0.516,0-0.621-0.436-0.635-0.858l-0.131-3.9c-0.027-0.778-0.094-1.081-0.857-1.081h-0.422c-0.133,0-0.264,0.04-0.395,0.118
		L180.914,50.368z"/>
	<path fill="#CFCECE" d="M191.301,49.075c-0.264,0-0.713-0.052-0.713,0.357c0,0.21,0.16,0.29,0.344,0.368l3.164,1.438
		c0.816,0.369,1.24,0.882,1.24,1.792c0,1.277-0.871,1.885-2.084,1.885h-1.951c-0.658,0-1.107-0.025-1.582-0.396
		c-0.236-0.185-0.578-0.42-0.578-0.739c0-0.355,0.303-0.632,0.658-0.632c0.199,0,0.342,0.065,0.488,0.224
		c0.223,0.252,0.617,0.277,1.014,0.277h1.715c0.447,0,1.055,0.039,1.055-0.699c0-0.303-0.369-0.5-0.66-0.633l-2.979-1.356
		c-0.699-0.317-1.107-0.725-1.107-1.543c0-1.001,0.791-1.607,1.74-1.607h2.162c0.697,0,0.988,0.039,1.461,0.435
		c0.238,0.198,0.502,0.355,0.502,0.712c0,0.355-0.303,0.633-0.645,0.633c-0.238,0-0.385-0.092-0.543-0.266
		c-0.211-0.222-0.436-0.249-0.775-0.249H191.301z"/>
	<path fill="#CFCECE" d="M193.174,40.077c0-0.293,0.1-0.539,0.307-0.742c0.201-0.205,0.449-0.306,0.74-0.306h0.174
		c0.697,0,1.047,0.35,1.047,1.048s-0.35,1.047-1.047,1.047h-0.174c-0.291,0-0.539-0.104-0.74-0.306
		C193.273,40.612,193.174,40.366,193.174,40.077z"/>
	<path fill="#CFCECE" d="M83.658,9.062c0-0.292,0.101-0.539,0.306-0.742c0.203-0.204,0.45-0.306,0.741-0.306h4.604
		c0.699,0,1.047,0.35,1.047,1.048c0,0.697-0.348,1.047-1.047,1.047h-4.604c-0.292,0-0.539-0.103-0.741-0.307
		C83.759,9.598,83.658,9.352,83.658,9.062z"/>
	<path fill="#CFCECE" d="M79.394,9.062c0-0.292,0.101-0.539,0.305-0.742c0.204-0.204,0.45-0.306,0.742-0.306h0.174
		c0.697,0,1.047,0.35,1.047,1.048c0,0.697-0.35,1.047-1.047,1.047H80.44c-0.292,0-0.538-0.103-0.742-0.307
		C79.494,9.598,79.394,9.352,79.394,9.062z"/>
</g>
</svg>
