<?xml version="1.0" encoding="utf-8"?>
<!-- Generator: Adobe Illustrator 16.0.0, SVG Export Plug-In . SVG Version: 6.00 Build 0)  -->
<!DOCTYPE svg PUBLIC "-//W3C//DTD SVG 1.1//EN" "http://www.w3.org/Graphics/SVG/1.1/DTD/svg11.dtd">
<svg version="1.1" id="Layer_1" xmlns="http://www.w3.org/2000/svg" xmlns:xlink="http://www.w3.org/1999/xlink" x="0px" y="0px"
	 width="130px" height="50px" viewBox="0 0 130 50" enable-background="new 0 0 130 50" xml:space="preserve">
<g>
	<path fill="#891D1B" d="M29.388,34.368c-0.207,0-0.382-0.073-0.525-0.216c-0.145-0.144-0.217-0.32-0.217-0.529V6.654
		c0-0.494,0.248-0.742,0.742-0.742s0.743,0.248,0.743,0.742v26.969c0,0.209-0.073,0.386-0.218,0.529
		C29.769,34.295,29.594,34.368,29.388,34.368z"/>
	<path fill="#891D1B" d="M118.765,19.862c0.907,0.392,1.702,0.928,2.382,1.607c0.68,0.681,1.216,1.485,1.609,2.413
		c0.391,0.928,0.587,1.907,0.587,2.938c0,0.701-0.104,1.371-0.31,2.011c-0.207,0.64-0.475,1.27-0.805,1.888h0.063
		c-0.208,0.33-0.477,0.67-0.806,1.021c-0.331,0.349-0.66,0.67-0.99,0.958c-0.082,0.041-0.185,0.104-0.309,0.186l-0.557,0.372
		c-0.082,0.041-0.155,0.084-0.217,0.123c-0.062,0.043-0.134,0.084-0.216,0.124c-1.155,0.536-2.556,0.803-3.626,0.803h-6.492
		c-1.814,0-3.729-0.555-5.173-1.67h0.062c-0.578-0.578-1.104-1.237-1.577-1.98c-0.475-0.74-0.795-1.523-0.959-2.348
		c-0.042-0.373,0.103-0.64,0.433-0.807c0.206,0,0.401,0.041,0.589,0.123c0.185,0.085,0.318,0.188,0.401,0.311v-0.062
		c0.287,1.445,0.989,2.63,2.103,3.558c1.114,0.928,2.677,1.393,4.121,1.393h6.492c0.619,0,1.522-0.136,2.141-0.403
		c0.619-0.267,1.186-0.628,1.701-1.082c0.516-0.455,0.968-0.979,1.361-1.577c0.392-0.6,0.67-1.208,0.835-1.826
		c0.041-0.122,0.082-0.311,0.123-0.556c0.042-0.248,0.062-0.433,0.062-0.558c0-0.823-0.154-1.597-0.464-2.319
		c-0.309-0.721-0.742-1.36-1.299-1.917c-0.558-0.558-1.197-1-1.918-1.33c-0.723-0.33-1.76-0.495-2.543-0.495h-6.492
		c-1.072,0-2.348-0.195-3.255-0.588c-0.907-0.392-1.692-0.918-2.351-1.577c-0.66-0.66-1.186-1.443-1.578-2.351
		c-0.392-0.906-0.587-1.896-0.587-2.971c0-1.03,0.195-1.988,0.587-2.875c0.393-0.888,0.918-1.659,1.578-2.32
		c0.658-0.659,1.443-1.186,2.351-1.578c0.907-0.391,2.183-0.587,3.255-0.587h6.492c1.771,0,3.646,0.536,5.048,1.608
		c0.535,0.578,1.062,1.268,1.577,2.072c0.517,0.805,0.836,1.557,0.959,2.258c0.082,0.371-0.041,0.64-0.37,0.804
		c-0.207,0-0.424-0.05-0.65-0.153c-0.228-0.104-0.402-0.218-0.525-0.341c-0.206-0.578-0.495-1.155-0.866-1.732
		c-0.371-0.578-0.825-1.093-1.36-1.546c-0.536-0.453-1.104-0.814-1.701-1.084c-0.599-0.267-1.491-0.401-2.11-0.401h-6.492
		c-0.866,0-1.946,0.155-2.667,0.464c-0.723,0.31-1.352,0.733-1.887,1.269c-0.537,0.536-0.96,1.166-1.269,1.887
		c-0.309,0.723-0.463,1.475-0.463,2.257c0,1.732,0.566,3.167,1.7,4.3c1.134,1.136,2.854,1.701,4.585,1.701h6.492
		C116.603,19.273,117.856,19.47,118.765,19.862z"/>
	<path fill="#891D1B" d="M20.362,9.19c-0.021-0.205-0.113-0.37-0.278-0.495c-1.03-0.865-2.186-1.524-3.464-1.979
		c-1.278-0.453-2.577-0.681-3.897-0.681c-2.145,0-4.093,0.525-5.846,1.578C6.556,7.807,6.25,8.016,5.953,8.23
		C5.9,8.271,5.847,8.31,5.793,8.35C5.686,8.431,5.581,8.513,5.477,8.597c-0.061,0.05-0.121,0.101-0.181,0.152
		C4.963,9.03,4.648,9.327,4.354,9.642C4.276,9.724,4.2,9.805,4.127,9.888c-0.055,0.061-0.107,0.121-0.16,0.184
		c-0.76,0.889-1.378,1.879-1.853,2.974c-0.521,1.207-0.815,2.498-0.883,3.875l-0.015,0.051v0.56v5.331v10.478v0.112
		c0,0.207,0.073,0.381,0.217,0.524c0.145,0.145,0.32,0.218,0.526,0.218s0.382-0.073,0.525-0.218
		c0.066-0.066,0.116-0.142,0.153-0.219c0.083-0.12,0.125-0.261,0.125-0.418V22.861v-5.319c0-1.36,0.257-2.649,0.772-3.866
		c0.517-1.217,1.227-2.279,2.135-3.187C6.577,9.583,7.64,8.872,8.857,8.354c1.216-0.514,2.505-0.771,3.865-0.771
		c2.392,0,4.516,0.764,6.372,2.288c0.165,0.124,0.351,0.187,0.557,0.187s0.392-0.104,0.557-0.31
		C20.332,9.583,20.383,9.397,20.362,9.19z"/>
	<path fill="#891D1B" d="M60.966,13.076c-0.599-1.381-1.423-2.599-2.475-3.65c-1.052-1.051-2.279-1.875-3.681-2.474
		c-1.354-0.577-2.807-0.874-4.353-0.895l-0.006-0.003c-0.026,0-0.052,0.002-0.078,0.002s-0.053-0.002-0.078-0.002l-0.008,0.003
		c-1.546,0.021-2.998,0.317-4.352,0.895c-1.402,0.599-2.63,1.423-3.681,2.474c-1.053,1.052-1.876,2.27-2.476,3.65
		c-0.597,1.382-0.896,2.876-0.896,4.485v15.922c0,0.206,0.073,0.381,0.217,0.525c0.146,0.144,0.32,0.215,0.526,0.215
		c0.207,0,0.382-0.071,0.525-0.215c0.146-0.145,0.217-0.319,0.217-0.525V17.562c0-1.401,0.269-2.701,0.803-3.898
		c0.538-1.195,1.26-2.247,2.166-3.153c0.907-0.908,1.97-1.619,3.186-2.135c1.195-0.506,2.478-0.763,3.851-0.772
		c1.371,0.01,2.654,0.267,3.849,0.772c1.216,0.516,2.278,1.227,3.186,2.135c0.907,0.906,1.629,1.958,2.165,3.153
		c0.537,1.197,0.805,2.497,0.805,3.898v15.922c0,0.206,0.071,0.381,0.217,0.525c0.145,0.144,0.319,0.215,0.525,0.215
		s0.382-0.071,0.526-0.215c0.144-0.145,0.216-0.319,0.216-0.525V17.562C61.862,15.952,61.563,14.458,60.966,13.076z"/>
	<path fill="#59554C" d="M92.669,27.204c-0.599,1.379-1.422,2.599-2.474,3.648c-1.052,1.053-2.28,1.878-3.682,2.474
		c-1.354,0.579-2.806,0.874-4.353,0.894l-0.006,0.004c-0.026,0-0.052,0-0.079,0c-0.025,0-0.052,0-0.078,0l-0.006-0.004
		c-1.547-0.02-2.998-0.314-4.353-0.894c-1.402-0.596-2.629-1.421-3.681-2.474c-1.052-1.05-1.875-2.27-2.475-3.648
		c-0.598-1.383-0.897-2.877-0.897-4.485V6.796c0-0.206,0.072-0.381,0.217-0.525s0.32-0.216,0.525-0.216
		c0.207,0,0.383,0.071,0.527,0.216s0.216,0.319,0.216,0.525v15.923c0,1.401,0.269,2.7,0.804,3.897
		c0.537,1.195,1.258,2.247,2.165,3.153c0.908,0.908,1.971,1.619,3.187,2.136c1.193,0.506,2.478,0.763,3.849,0.771
		c1.373-0.008,2.656-0.265,3.851-0.771c1.216-0.517,2.277-1.228,3.186-2.136c0.907-0.906,1.629-1.958,2.165-3.153
		c0.535-1.197,0.804-2.496,0.804-3.897V6.796c0-0.206,0.071-0.381,0.218-0.525c0.144-0.145,0.318-0.216,0.525-0.216
		c0.206,0,0.381,0.071,0.525,0.216c0.144,0.145,0.217,0.319,0.217,0.525v15.923C93.566,24.327,93.267,25.821,92.669,27.204z"/>
	<path fill="#59554C" d="M72.294,39.944c-0.188,0-0.505-0.035-0.505,0.253c0,0.148,0.112,0.207,0.244,0.261l2.243,1.021
		c0.578,0.262,0.878,0.625,0.878,1.271c0,0.906-0.618,1.337-1.478,1.337h-1.383c-0.468,0-0.785-0.021-1.122-0.282
		c-0.168-0.129-0.41-0.297-0.41-0.523c0-0.254,0.215-0.447,0.467-0.447c0.14,0,0.242,0.045,0.346,0.159
		c0.16,0.177,0.439,0.196,0.72,0.196h1.215c0.318,0,0.748,0.025,0.748-0.497c0-0.216-0.262-0.356-0.468-0.448l-2.112-0.962
		c-0.494-0.227-0.785-0.515-0.785-1.094c0-0.713,0.562-1.142,1.233-1.142h1.532c0.497,0,0.703,0.028,1.04,0.309
		c0.167,0.14,0.354,0.253,0.354,0.506c0,0.252-0.215,0.447-0.457,0.447c-0.169,0-0.272-0.064-0.384-0.188
		c-0.15-0.156-0.309-0.178-0.553-0.178H72.294z"/>
	<path fill="#59554C" d="M78.055,40.722c0-0.6,0.121-0.807,0.571-1.17c0.438-0.363,0.644-0.504,1.27-0.504h0.711
		c0.626,0,0.832,0.141,1.271,0.504c0.447,0.363,0.57,0.57,0.57,1.17v1.693c0,0.588-0.149,0.812-0.617,1.203
		c-0.468,0.395-0.654,0.47-1.225,0.47h-0.711c-0.568,0-0.756-0.075-1.224-0.47c-0.467-0.392-0.617-0.615-0.617-1.203V40.722z
		 M78.952,42.415c0,0.185,0.065,0.306,0.327,0.531c0.196,0.168,0.337,0.244,0.616,0.244h0.711c0.28,0,0.42-0.076,0.617-0.244
		c0.262-0.226,0.327-0.347,0.327-0.531v-1.693c0-0.188-0.065-0.31-0.327-0.532c-0.197-0.169-0.337-0.245-0.617-0.245h-0.711
		c-0.279,0-0.42,0.076-0.616,0.245c-0.262,0.223-0.327,0.344-0.327,0.532V42.415z"/>
	<path fill="#59554C" d="M86.885,43.19h0.673c0.299,0,0.616,0.064,0.616,0.445c0,0.394-0.355,0.452-0.616,0.452h-2.281
		c-0.261,0-0.616-0.059-0.616-0.452c0-0.381,0.317-0.445,0.616-0.445h0.71v-5.097h-0.71c-0.261,0-0.616-0.055-0.616-0.446
		c0-0.384,0.317-0.448,0.616-0.448h0.944c0.515,0,0.664,0.09,0.664,0.624V43.19z"/>
	<path fill="#59554C" d="M95.344,43.422c0,0.205,0.037,0.666-0.439,0.666c-0.384,0-0.449-0.319-0.449-0.629v-0.148l-0.729,0.478
		c-0.29,0.186-0.532,0.3-0.775,0.3h-0.665c-0.251,0-0.533-0.075-0.832-0.329c-0.401-0.345-0.392-0.73-0.411-1.217l-0.092-2.822
		c-0.01-0.325,0.037-0.672,0.447-0.672c0.384,0,0.431,0.327,0.44,0.618l0.093,2.758c0.01,0.205,0.019,0.447,0.094,0.579
		c0.074,0.131,0.309,0.188,0.523,0.188h0.3c0.103,0,0.195-0.031,0.28-0.084l1.317-0.834v-2.606c0-0.31,0.065-0.618,0.448-0.618
		c0.384,0,0.449,0.309,0.449,0.618V43.422z"/>
	<path fill="#59554C" d="M99.766,42.394c0,0.506-0.019,0.797,0.599,0.797h0.458c0.364,0,0.532-0.031,0.627-0.395
		c0.055-0.216,0.223-0.363,0.447-0.363c0.253,0,0.458,0.196,0.458,0.447c0,0.254-0.157,0.571-0.309,0.747
		c-0.326,0.392-0.757,0.461-1.233,0.461h-0.458c-0.449,0-0.841-0.104-1.158-0.452c-0.347-0.381-0.327-0.765-0.327-1.251v-2.44h-0.29
		c-0.262,0-0.617-0.055-0.617-0.448c0-0.382,0.317-0.448,0.617-0.448h0.29v-0.917c0-0.308,0.065-0.615,0.448-0.615
		s0.448,0.308,0.448,0.615v0.917h1.505c0.3,0,0.616,0.066,0.616,0.448c0,0.394-0.354,0.448-0.616,0.448h-1.505V42.394z"/>
	<path fill="#59554C" d="M107.073,43.19h0.674c0.3,0,0.616,0.064,0.616,0.445c0,0.394-0.354,0.452-0.616,0.452h-2.28
		c-0.263,0-0.617-0.059-0.617-0.452c0-0.381,0.316-0.445,0.617-0.445h0.71v-3.246h-0.71c-0.263,0-0.617-0.055-0.617-0.448
		c0-0.382,0.316-0.448,0.617-0.448h0.944c0.513,0,0.662,0.093,0.662,0.624V43.19z M105.718,37.235c0-0.318,0.178-0.42,0.422-0.42
		h0.513c0.244,0,0.421,0.102,0.421,0.42v0.429c0,0.318-0.177,0.422-0.421,0.422h-0.513c-0.244,0-0.422-0.104-0.422-0.422V37.235z"/>
	<path fill="#59554C" d="M110.576,40.722c0-0.6,0.121-0.807,0.569-1.17c0.438-0.363,0.645-0.504,1.271-0.504h0.711
		c0.627,0,0.832,0.141,1.271,0.504c0.447,0.363,0.57,0.57,0.57,1.17v1.693c0,0.588-0.15,0.812-0.616,1.203
		c-0.469,0.395-0.655,0.47-1.226,0.47h-0.711c-0.569,0-0.756-0.075-1.224-0.47c-0.468-0.392-0.616-0.615-0.616-1.203V40.722z
		 M111.473,42.415c0,0.185,0.065,0.306,0.327,0.531c0.196,0.168,0.336,0.244,0.616,0.244h0.711c0.281,0,0.421-0.076,0.616-0.244
		c0.263-0.226,0.328-0.347,0.328-0.531v-1.693c0-0.188-0.065-0.31-0.328-0.532c-0.195-0.169-0.335-0.245-0.616-0.245h-0.711
		c-0.28,0-0.42,0.076-0.616,0.245c-0.262,0.223-0.327,0.344-0.327,0.532V42.415z"/>
	<path fill="#59554C" d="M118.481,40.86v2.609c0,0.309-0.065,0.618-0.449,0.618s-0.448-0.31-0.448-0.618v-3.759
		c0-0.327,0.038-0.663,0.448-0.663c0.402,0,0.449,0.336,0.449,0.655v0.103v0.018l0.728-0.477c0.235-0.15,0.487-0.299,0.777-0.299
		h0.663c0.346,0,0.562,0.093,0.831,0.327c0.402,0.345,0.384,0.729,0.402,1.215l0.094,2.824c0.01,0.316-0.038,0.674-0.439,0.674
		c-0.364,0-0.438-0.31-0.448-0.609l-0.094-2.767c-0.019-0.553-0.064-0.768-0.607-0.768h-0.3c-0.093,0-0.187,0.029-0.28,0.086
		L118.481,40.86z"/>
	<path fill="#59554C" d="M125.847,39.944c-0.188,0-0.505-0.035-0.505,0.253c0,0.148,0.112,0.207,0.242,0.261l2.244,1.021
		c0.579,0.262,0.879,0.625,0.879,1.271c0,0.906-0.618,1.337-1.478,1.337h-1.383c-0.468,0-0.785-0.021-1.122-0.282
		c-0.168-0.129-0.411-0.297-0.411-0.523c0-0.254,0.216-0.447,0.467-0.447c0.14,0,0.243,0.045,0.347,0.159
		c0.158,0.177,0.439,0.196,0.72,0.196h1.215c0.317,0,0.748,0.025,0.748-0.497c0-0.216-0.262-0.356-0.468-0.448l-2.112-0.962
		c-0.495-0.227-0.786-0.515-0.786-1.094c0-0.713,0.562-1.142,1.234-1.142h1.533c0.496,0,0.701,0.028,1.038,0.309
		c0.168,0.14,0.354,0.253,0.354,0.506c0,0.252-0.214,0.447-0.456,0.447c-0.169,0-0.272-0.064-0.384-0.188
		c-0.15-0.156-0.31-0.178-0.552-0.178H125.847z"/>
	<path fill="#59554C" d="M127.175,33.562c0-0.206,0.071-0.38,0.217-0.524c0.144-0.147,0.318-0.216,0.524-0.216h0.124
		c0.495,0,0.743,0.245,0.743,0.74s-0.248,0.742-0.743,0.742h-0.124c-0.206,0-0.381-0.072-0.524-0.217
		C127.246,33.944,127.175,33.77,127.175,33.562z"/>
	<path fill="#891D1B" d="M49.511,11.569c0-0.207,0.072-0.383,0.217-0.527c0.144-0.145,0.319-0.215,0.525-0.215h3.265
		c0.495,0,0.743,0.247,0.743,0.742s-0.248,0.741-0.743,0.741h-3.265c-0.206,0-0.382-0.072-0.525-0.217
		C49.583,11.949,49.511,11.774,49.511,11.569z"/>
	<path fill="#59554C" d="M46.486,11.569c0-0.207,0.072-0.383,0.217-0.527c0.144-0.145,0.319-0.215,0.525-0.215h0.123
		c0.495,0,0.743,0.247,0.743,0.742s-0.248,0.741-0.743,0.741h-0.123c-0.206,0-0.382-0.072-0.525-0.217
		C46.559,11.949,46.486,11.774,46.486,11.569z"/>
</g>
</svg>
